/* XPM */
static char *result[] = {
/* columns rows colors chars-per-pixel */
"50 50 3 1 ",
"O c #445357",
"B c #a1c2c9",
"P c #e1f505",
/* pixels */
"OOOOOOOOOOOOOOOOOOOOOOOOOOOOOOOOOOOOOOOOOOOOOOOOOO",
"OBBBBBBBBBBBBBBBBBBBBBBBBBBBBBBBBBBBBBBBBBBBBBBBBO",
"OBBBBBBBBBBBBBBBBBBBBBBBBBBBBBBBBBBBBBBBBBBBBBBBBO",
"OBBBBBBBBBBBBBBBBBBBBBBBBBBBBBBBBBBBBBBBBBBBBBBBBO",
"OBBBBBBBBBBBBBBBBBBBBBBBBBBBBBBBBBBBBBBBBBBBBBBBBO",
"OBBBBBBBBBBBBBBBBBBBBBBBBBBBBBBBBBBBBBBBBBBBBBBBBO",
"OBBBBBBBBBBBBBBBBBBBBBBBBBBBBBBBBBBBBBBBBBBBBBBBBO",
"OBBBBBBBBBBBBBBBBBBBBBBBBBBBBBBBBBBBBBBBBBBBBBBBBO",
"OBBBBBBBBBBBBBBBBBBBBBBBBBBBBBBBBBBBBBBBBBBBBBBBBO",
"OBBBBBBBBBBBBBBBBBBBBBBBBBBBBBBBBBBBBBBBBBBBBBBBBO",
"OBBBBBBBBBBBBBBBBBBBBBBBBBBBBBBBBBBBBBBBBBBBBBBBBO",
"OBBBBBBBBBBBBBBBBBBBBBBBBBBBBBBBBBBBBBBBBBBBBBBBBO",
"OBBBBBBBBBBBBBBBBBPPPPPBBBBBBBBBBBBBBBBBBBBBBBBBBO",
"OBBBBBBBBBBBBBBBPPPPPPPPPBBBBBBBBBBBBBBBBBBBBBBBBO",
"OBBBBBBBBBBBBBPPPPPPPPPPPPPBBBBBBBBBBBBBBBBBBBBBBO",
"OBBBBBBBBBBBPPPPPPPPPPPPPPPPPBBBBBBBBBBBBBBBBBBBBO",
"OBBBBBBBBBPPPPPPPPPPPPPPPPPPPPPBBBBBBBBBBBBBBBBBBO",
"OBBBBBBBBBPPPPPPPPPPPPPPPPPPPPPBBBBBBBBBBBBBBBBBBO",
"OBBBBBBBBBPPPPPPPPPPPPPPPPPPPPPBBBBBBBBBBBBBBBBBBO",
"OBBBBBBBBBPPPPPPPPPPPPPPPPPPPPPBBBBBBBBBBBBBBBBBBO",
"OBBBBBBBBBPPPPPPPPPPPPPPPPPPPPPBBBBBBBBBBBBBBBBBBO",
"OBBBBBBBBBPPPPPPPPPPPPPPPPPPPPPBBBBBBBBBBBBBBBBBBO",
"OBBBBBBBBBPPPPPPPPPPPPPPPPPPPPPBBBBBBBBBBBBBBBBBBO",
"OBBBBBBBBBPPPPPPPPPPPPPPPPPPPPPBBBBBBBBBBBBBBBBBBO",
"OBBBBBBBBBPPPPPPPPPPPPPPPPPPPPPBBBBBBBBBBBBBBBBBBO",
"OBBBBBBBBBPPPPPPPPPPPPPPPPPPPPPBBBBBBBBBBBBBBBBBBO",
"OBBBBBBBBBPPPPPPPPPPPPPPPPPPPPPBBBBBBBBBBBBBBBBBBO",
"OBBBBBBBBBBPPPPPPPPPPPPPPPPPPPPBBBBBBBBBBBBBBBBBBO",
"OBBBBBBBBBBBBPPPPPPPPPPPPPPPPBBBBBBBBBBBBBBBBBBBBO",
"OBBBBBBBBBBBBBBPPPPPPPPPPPPBBBBBBBBBBBBBBBBBBBBBBO",
"OBBBBBBBBBBBBBBBBPPPPPPPPBBBBBBBBBBBBBBBBBBBBBBBBO",
"OBBBBBBBBBBBBBBBBBBPPPPBBBBBBBBBBBBBBBBBBBBBBBBBBO",
"OBBBBBBBBBBBBBBBBBBBBBBBBBBBBBBBBBBBBBBBBBBBBBBBBO",
"OBBBBBBBBBBBBBBBBBBBBBBBBBBBBBBBBBBBBBBBBBBBBBBBBO",
"OBBBBBBBBBBBBBBBBBBBBBBBBBBBBBBBBBBBBBBBBBBBBBBBBO",
"OBBBBBBBBBBBBBBBBBBBBBBBBBBBBBBBBBBBBBBBBBBBBBBBBO",
"OBBBBBBBBBBBBBBBBBBBBBBBBBBBBBBBBBBBBBBBBBBBBBBBBO",
"OBBBBBBBBBBBBBBBBBBBBBBBBBBBBBBBBBBBBBBBBBBBBBBBBO",
"OBBBBBBBBBBBBBBBBBBBBBBBBBBBBBBBBBBBBBBBBBBBBBBBBO",
"OBBBBBBBBBBBBBBBBBBBBBBBBBBBBBBBBBBBBBBBBBBBBBBBBO",
"OBBBBBBBBBBBBBBBBBBBBBBBBBBBBBBBBBBBBBBBBBBBBBBBBO",
"OBBBBBBBBBBBBBBBBBBBBBBBBBBBBBBBBBBBBBBBBBBBBBBBBO",
"OBBBBBBBBBBBBBBBBBBBBBBBBBBBBBBBBBBBBBBBBBBBBBBBBO",
"OBBBBBBBBBBBBBBBBBBBBBBBBBBBBBBBBBBBBBBBBBBBBBBBBO",
"OBBBBBBBBBBBBBBBBBBBBBBBBBBBBBBBBBBBBBBBBBBBBBBBBO",
"OBBBBBBBBBBBBBBBBBBBBBBBBBBBBBBBBBBBBBBBBBBBBBBBBO",
"OBBBBBBBBBBBBBBBBBBBBBBBBBBBBBBBBBBBBBBBBBBBBBBBBO",
"OBBBBBBBBBBBBBBBBBBBBBBBBBBBBBBBBBBBBBBBBBBBBBBBBO",
"OBBBBBBBBBBBBBBBBBBBBBBBBBBBBBBBBBBBBBBBBBBBBBBBBO",
"OOOOOOOOOOOOOOOOOOOOOOOOOOOOOOOOOOOOOOOOOOOOOOOOOO"
};
