/* XPM */
static char *result[] = {
/* columns rows colors chars-per-pixel */
"50 50 4 1 ",
"O c #445357",
"B c #a1c2c9",
"D c #75452a",
"P c #050505",
/* pixels */
"OOOOOOOOOOOOOOOOOOOOOOOOOOOOOOOOOOOOOOOOOOOOOOOOOO",
"OBBBBBBBBBBBBBBBBBBBBBBBBBBBBBBBBBBBBBBBBBBBBBBBBO",
"OBBBBBBBBBBBBBBBBBBBBBBBBBBBBBBBBBBBBBBBBBBBBBBBBO",
"OBBBBBBBBBBBBBBBBBBBBBBBBBBBBBBBBBBBBBBBBBBBBBBBBO",
"OBBBBBBBBBBBBBBBBBBBBBBBBBBBBBBBBBBBBBBBBBBBBBBBBO",
"OBBBBBBBBBBBBBBBBBBBBBBBBBBBBBBBBBBBBBBBBBBBBBBBBO",
"OBBBBBBBBBBBBBBBBBBBBBBBBBBBBBBBBBBBBBBBBBBBBBBBBO",
"OBBBBBBDDDDDDDDDDDDDDDDDDDDDDDBBBBBBBBBBBBBBBBBBBO",
"OBBBBBBDDDDDDDDDDDDDDDDDDDDDDDBBBBBBBBBBBBBBBBBBBO",
"OBBBBBBDDDDDDDDDDDDDDDDDDDDDDDBBBBBBBBBBBBBBBBBBBO",
"OBBBBBBDDDDDDDDDDDDDDDDDDDDDDDBBBBBBBBBBBBBBBBBBBO",
"OBBBBBBDDDDDDDDDDDDDDDDDDDDDDDBBBBBBBBBBBBBBBBBBBO",
"OBBBBBBDDDDDDDDDDDDDDDDDDDDDDDBBBBBBBBBBBBBBBBBBBO",
"OBBBBBBDDDDDDDDDDDDDDDDDDDDDDDBBBBBBBBBBBBBBBBBBBO",
"OBBBBBBDDDDDDDDDDDDDDDDDDDDDDDBBBBBBBBBBBBBBBBBBBO",
"OBBBBBBDDDDDDDDDDDDDDDDDDDDDDDBBBBBBBBBBBBBBBBBBBO",
"OBBBBBBDDDDDDDDDDDDDDDDDDDDDDDBBBBBBBBBBBBBBBBBBBO",
"OBBBBBBDDDDDDDDDDDDDDDDDDDDDDDBBBBBBBBBBBBBBBBBBBO",
"OBBBBBBDDDDDDDDDDDDDDDDDDDDDDDBBBBBBBBBBBBBBBBBBBO",
"OBBBBBBDDDDDDDDDDDDDDDDDDDDDDDBBBBBBBBBBBBBBBBBBBO",
"OBBBBBBDDDDDDDDDDDDDDDDPPPDDDDBBBBBBBBBBBBBBBBBBBO",
"OBBBBBBDDDDDDDDDDDDDDDDPPPDDDDBBBBBBBBBBBBBBBBBBBO",
"OBBBBBBDDDDDDDDDDDDDDDDPPPDDDDBBBBBBBBBBBBBBBBBBBO",
"OBBBBBBDDDDDDDDDDDDDDDDDDDDDDDBBBBBBBBBBBBBBBBBBBO",
"OBBBBBBDDDDDDDDDDDDDDDDDDDDDDDBBBBBBBBBBBBBBBBBBBO",
"OBBBBBBDDDDDDDDDDDDDDDDDDDDDDDBBBBBBBBBBBBBBBBBBBO",
"OBBBBBBDDDDDDDDDDDDDDDDDDDDDDDBBBBBBBBBBBBBBBBBBBO",
"OBBBBBBDDDDDDDDDDDDDDDDDDDDDDDBBBBBBBBBBBBBBBBBBBO",
"OBBBBBBDDDDDDDDDDDDDDDDDDDDDDDBBBBBBBBBBBBBBBBBBBO",
"OBBBBBBDDDDDDDDDDDDDDDDDDDDDDDBBBBBBBBBBBBBBBBBBBO",
"OBBBBBBDDDDDDDDDDDDDDDDDDDDDDDBBBBBBBBBBBBBBBBBBBO",
"OBBBBBBDDDDDDDDDDDDDDDDDDDDDDDBBBBBBBBBBBBBBBBBBBO",
"OBBBBBBDDDDDDDDDDDDDDDDDDDDDDDBBBBBBBBBBBBBBBBBBBO",
"OBBBBBBDDDDDDDDDDDDDDDDDDDDDDDBBBBBBBBBBBBBBBBBBBO",
"OBBBBBBDDDDDDDDDDDDDDDDDDDDDDDBBBBBBBBBBBBBBBBBBBO",
"OBBBBBBDDDDDDDDDDDDDDDDDDDDDDDBBBBBBBBBBBBBBBBBBBO",
"OBBBBBBDDDDDDDDDDDDDDDDDDDDDDDBBBBBBBBBBBBBBBBBBBO",
"OBBBBBBDDDDDDDDDDDDDDDDDDDDDDDBBBBBBBBBBBBBBBBBBBO",
"OBBBBBBDDDDDDDDDDDDDDDDDDDDDDDBBBBBBBBBBBBBBBBBBBO",
"OBBBBBBDDDDDDDDDDDDDDDDDDDDDDDBBBBBBBBBBBBBBBBBBBO",
"OBBBBBBDDDDDDDDDDDDDDDDDDDDDDDBBBBBBBBBBBBBBBBBBBO",
"OBBBBBBDDDDDDDDDDDDDDDDDDDDDDDBBBBBBBBBBBBBBBBBBBO",
"OBBBBBBDDDDDDDDDDDDDDDDDDDDDDDBBBBBBBBBBBBBBBBBBBO",
"OBBBBBBBBBBBBBBBBBBBBBBBBBBBBBBBBBBBBBBBBBBBBBBBBO",
"OBBBBBBBBBBBBBBBBBBBBBBBBBBBBBBBBBBBBBBBBBBBBBBBBO",
"OBBBBBBBBBBBBBBBBBBBBBBBBBBBBBBBBBBBBBBBBBBBBBBBBO",
"OBBBBBBBBBBBBBBBBBBBBBBBBBBBBBBBBBBBBBBBBBBBBBBBBO",
"OBBBBBBBBBBBBBBBBBBBBBBBBBBBBBBBBBBBBBBBBBBBBBBBBO",
"OBBBBBBBBBBBBBBBBBBBBBBBBBBBBBBBBBBBBBBBBBBBBBBBBO",
"OOOOOOOOOOOOOOOOOOOOOOOOOOOOOOOOOOOOOOOOOOOOOOOOOO"
};
