/* XPM */
static char *result[] = {
/* columns rows colors chars-per-pixel */
"50 50 6 1 ",
"O c #445357",
"B c #e6478c",
"P c #fa9bec",
"M c #f2acca",
"A c #fafbfc",
"W c #a1c2c9",
/* pixels */
"OOOOOOOOOOOOOOOOOOOOOOOOOOOOOOOOOOOOOOOOOOOOOOOOOO",
"OWWWWWWWWWWWWWWWWWWWWWWWWWWWWWWWWWWWWWWWWWWWWWWWWO",
"OWWWWWWWWWWWWWWWWWWWWWWWWWWWWWWWWWWWWWWWWWWWWWWWWO",
"OWWWWWWWWWWWWWWWWWWWWWWWWWWWWWWWWWWWWWWWWWWWWWWWWO",
"OWWBBBBBBBBBBBBBBBBBBBBBBBBBBBBBBBBBBBWWWWWWWWWWWO",
"OWWBBBBBBBBBBBBBBBBBBBBBBBBBBBBBBBBBBBWWWWWWWWWWWO",
"OWWBBBBBBBBBBBBBBBBBBBBBBBBBBBBBBBBBBBWWWWWWWWWWWO",
"OWWBBBBBBBBBBBBBBBBBBBBBBBBBBBBBBBBBBBWWWWWWWWWWWO",
"OWWBBBBBBBBBBBBBBBBBBBBBBBBBBBBBBBBBBBWWWWWWWWWWWO",
"OWWBBBBBBBBBBBBBBBBBBBBBBBBBBBBBBBBBBBWWWWWWWWWWWO",
"OWWBBBBBBBBBBBBBBBBBBBBBBBBBBBBBBBBBBBWWWWWWWWWWWO",
"OWWBBBBBBBBBBBBBBBBBBBBBBBBBBBBBBBBBBBWWWWWWWWWWWO",
"OWWBBBBBBBBBBBBBBBBBBBBBBBBBBBBBBBBBBBWWWWWWWWWWWO",
"OWWBBBBBBBBBPPPPBBBBBBBBBPPPPBBBBBBBBBWWWWWWWWWWWO",
"OWWBBBBBBBBBPAAPBBBBBBBBBPAAPBBBBBBBBBWWWWWWWWWWWO",
"OWWBBBBBBBBBPAAPBBBBBBBBBPAAPBBBBBBBBBWWWWWWWWWWWO",
"OWWBBBBBBBBBBBBBBBBBBBBBBBBBBBBBBBBBBBWWWWWWWWWWWO",
"OWWBBBBBBBBBBBBBBBBBBBBBBBBBBBBBBBBBBBWWWWWWWWWWWO",
"OWWBBBBBBBBBBBBBBBBBBBBBBBBBBBBBBBBBBBWWWWWWWWWWWO",
"OWWBBBBBBBBBBBBBBBBBBBBBBBBBBBBBBBBBBBWWWWWWWWWWWO",
"OWWBBBBBBBBBBBBBBBBBBBBBBBBBBBBBBBBBBBWWWWWWWWWWWO",
"OWWBBBBBBBBBBBBBBBBBBBBBBBBBBBBBBBBBBBWWWWWWWWWWWO",
"OWWBBBBBBBBBBBBBBMMMMMMMBBBBBBBBBBBBBBWWWWWWWWWWWO",
"OWWBBBBBBBBBBBBBMMMMMMMMMBBBBBBBBBBBBBWWWWWWWWWWWO",
"OWWBBBBBBBBBBBBMMMMMMMMMMMBBBBBBBBBBBBWWWWWWWWWWWO",
"OWWBBBBBBBBBBBBMMMMMMMMMMMBBBBBBBBBBBBWWWWWWWWWWWO",
"OWWBBBBBBBBBBBBMMMMMMMMMMMBBBBBBBBBBBBWWWWWWWWWWWO",
"OWWBBBBBBBBBBBBMMOOMMMOOMMBBBBBBBBBBBBWWWWWWWWWWWO",
"OWWBBBBBBBBBBBBMMOOMMMOOMMBBBBBBBBBBBBWWWWWWWWWWWO",
"OWWBBBBBBBBBBBBMMMMMMMMMMMBBBBBBBBBBBBWWWWWWWWWWWO",
"OWWBBBBBBBBBBBBMMMMMMMMMMMBBBBBBBBBBBBWWWWWWWWWWWO",
"OWWBBBBBBBBBBBBBMMMMMMMMMBBBBBBBBBBBBBWWWWWWWWWWWO",
"OWWBBBBBBBBBBBBBBMMMMMMMBBBBBBBBBBBBBBWWWWWWWWWWWO",
"OWWBBBBBBBBBBBBBBBBBBBBBBBBBBBBBBBBBBBWWWWWWWWWWWO",
"OWWBBBBBBBBBBBBBBBBBBBBBBBBBBBBBBBBBBBWWWWWWWWWWWO",
"OWWBBBBBBBBBBBBBBBBBBBBBBBBBBBBBBBBBBBWWWWWWWWWWWO",
"OWWBBBBBBBBBBBBBBBBBBBBBBBBBBBBBBBBBBBWWWWWWWWWWWO",
"OWWWWWWWWWWWWWWWWWWWWWWWWWWWWWWWWWWWWWWWWWWWWWWWWO",
"OWWWWWWWWWWWWWWWWWWWWWWWWWWWWWWWWWWWWWWWWWWWWWWWWO",
"OWWWWWWWWWWWWWWWWWWWWWWWWWWWWWWWWWWWWWWWWWWWWWWWWO",
"OWWWWWWWWWWWWWWWWWWWWWWWWWWWWWWWWWWWWWWWWWWWWWWWWO",
"OWWWWWWWWWWWWWWWWWWWWWWWWWWWWWWWWWWWWWWWWWWWWWWWWO",
"OWWWWWWWWWWWWWWWWWWWWWWWWWWWWWWWWWWWWWWWWWWWWWWWWO",
"OWWWWWWWWWWWWWWWWWWWWWWWWWWWWWWWWWWWWWWWWWWWWWWWWO",
"OWWWWWWWWWWWWWWWWWWWWWWWWWWWWWWWWWWWWWWWWWWWWWWWWO",
"OWWWWWWWWWWWWWWWWWWWWWWWWWWWWWWWWWWWWWWWWWWWWWWWWO",
"OWWWWWWWWWWWWWWWWWWWWWWWWWWWWWWWWWWWWWWWWWWWWWWWWO",
"OWWWWWWWWWWWWWWWWWWWWWWWWWWWWWWWWWWWWWWWWWWWWWWWWO",
"OWWWWWWWWWWWWWWWWWWWWWWWWWWWWWWWWWWWWWWWWWWWWWWWWO",
"OOOOOOOOOOOOOOOOOOOOOOOOOOOOOOOOOOOOOOOOOOOOOOOOOO"
};
